<svg xmlns="http://www.w3.org/2000/svg" width="200" height="200" viewBox="0 0 200 200" role="img">
  <title>North Harbor Digital — NH Icon</title>
  <desc>Blueprint monogram NH initials icon for North Harbor Digital</desc>

  <rect width="200" height="200" fill="#FFFFFF" rx="16"></rect>

  
  <g opacity="0.3">
    <line x1="20" y1="0" x2="20" y2="200" stroke="#C0D0E0" stroke-width="0.5"></line>
    <line x1="40" y1="0" x2="40" y2="200" stroke="#C0D0E0" stroke-width="0.5"></line>
    <line x1="60" y1="0" x2="60" y2="200" stroke="#C0D0E0" stroke-width="0.5"></line>
    <line x1="80" y1="0" x2="80" y2="200" stroke="#C0D0E0" stroke-width="0.5"></line>
    <line x1="100" y1="0" x2="100" y2="200" stroke="#C0D0E0" stroke-width="0.5"></line>
    <line x1="120" y1="0" x2="120" y2="200" stroke="#C0D0E0" stroke-width="0.5"></line>
    <line x1="140" y1="0" x2="140" y2="200" stroke="#C0D0E0" stroke-width="0.5"></line>
    <line x1="160" y1="0" x2="160" y2="200" stroke="#C0D0E0" stroke-width="0.5"></line>
    <line x1="180" y1="0" x2="180" y2="200" stroke="#C0D0E0" stroke-width="0.5"></line>
    <line x1="0" y1="20" x2="200" y2="20" stroke="#C0D0E0" stroke-width="0.5"></line>
    <line x1="0" y1="40" x2="200" y2="40" stroke="#C0D0E0" stroke-width="0.5"></line>
    <line x1="0" y1="60" x2="200" y2="60" stroke="#C0D0E0" stroke-width="0.5"></line>
    <line x1="0" y1="80" x2="200" y2="80" stroke="#C0D0E0" stroke-width="0.5"></line>
    <line x1="0" y1="100" x2="200" y2="100" stroke="#C0D0E0" stroke-width="0.5"></line>
    <line x1="0" y1="120" x2="200" y2="120" stroke="#C0D0E0" stroke-width="0.5"></line>
    <line x1="0" y1="140" x2="200" y2="140" stroke="#C0D0E0" stroke-width="0.5"></line>
    <line x1="0" y1="160" x2="200" y2="160" stroke="#C0D0E0" stroke-width="0.5"></line>
    <line x1="0" y1="180" x2="200" y2="180" stroke="#C0D0E0" stroke-width="0.5"></line>
  </g>

  
  <line x1="12" y1="12" x2="28" y2="12" stroke="#5E6B75" stroke-width="1"></line>
  <line x1="12" y1="12" x2="12" y2="28" stroke="#5E6B75" stroke-width="1"></line>
  <line x1="188" y1="12" x2="172" y2="12" stroke="#5E6B75" stroke-width="1"></line>
  <line x1="188" y1="12" x2="188" y2="28" stroke="#5E6B75" stroke-width="1"></line>
  <line x1="12" y1="188" x2="28" y2="188" stroke="#5E6B75" stroke-width="1"></line>
  <line x1="12" y1="188" x2="12" y2="172" stroke="#5E6B75" stroke-width="1"></line>
  <line x1="188" y1="188" x2="172" y2="188" stroke="#5E6B75" stroke-width="1"></line>
  <line x1="188" y1="188" x2="188" y2="172" stroke="#5E6B75" stroke-width="1"></line>

  
  <text x="12" y="162" font-family="Georgia, &#39;Times New Roman&#39;, serif" font-size="136px" font-weight="700" fill="#234E70" letter-spacing="-5">NH</text>

  
  <line x1="12" y1="100" x2="188" y2="100" stroke="#3A86FF" stroke-width="4"></line>
  <circle cx="100" cy="100" r="5" fill="#3A86FF"></circle>
</svg>