<svg xmlns="http://www.w3.org/2000/svg" width="32" height="32" viewBox="0 0 32 32" role="img">
  <title>North Harbor Digital — Favicon</title>
  <desc>NH Blueprint monogram favicon, 32x32, light version</desc>

  <rect width="32" height="32" fill="#FFFFFF" rx="4"></rect>

  
  <line x1="0" y1="10" x2="32" y2="10" stroke="#D8E8F2" stroke-width="0.4"></line>
  <line x1="0" y1="20" x2="32" y2="20" stroke="#D8E8F2" stroke-width="0.4"></line>
  <line x1="10" y1="0" x2="10" y2="32" stroke="#D8E8F2" stroke-width="0.4"></line>
  <line x1="20" y1="0" x2="20" y2="32" stroke="#D8E8F2" stroke-width="0.4"></line>

  
  <line x1="2" y1="2" x2="6" y2="2" stroke="#5E6B75" stroke-width="0.6"></line>
  <line x1="2" y1="2" x2="2" y2="6" stroke="#5E6B75" stroke-width="0.6"></line>
  <line x1="30" y1="2" x2="26" y2="2" stroke="#5E6B75" stroke-width="0.6"></line>
  <line x1="30" y1="2" x2="30" y2="6" stroke="#5E6B75" stroke-width="0.6"></line>
  <line x1="2" y1="30" x2="6" y2="30" stroke="#5E6B75" stroke-width="0.6"></line>
  <line x1="2" y1="30" x2="2" y2="26" stroke="#5E6B75" stroke-width="0.6"></line>
  <line x1="30" y1="30" x2="26" y2="30" stroke="#5E6B75" stroke-width="0.6"></line>
  <line x1="30" y1="30" x2="30" y2="26" stroke="#5E6B75" stroke-width="0.6"></line>

  
  <text x="2" y="25" font-family="Georgia, &#39;Times New Roman&#39;, serif" font-size="20px" font-weight="700" fill="#234E70" letter-spacing="-0.5">NH</text>

  
  <line x1="2" y1="16" x2="30" y2="16" stroke="#3A86FF" stroke-width="1.2"></line>
  <circle cx="16" cy="16" r="1.2" fill="#3A86FF"></circle>
</svg>